{
  "accessors": [
    {
      "bufferView": 0,
      "componentType": 5125,
      "count": 990,
      "type": "SCALAR"
    },
    {
      "bufferView": 1,
      "componentType": 5126,
      "count": 303,
      "max": [
        0.077697202563285828,
        0,
        0.50083744525909424
      ],
      "min": [
        -0.077697083353996277,
        -0.77028042078018188,
        0
      ],
      "type": "VEC3"
    },
    {
      "bufferView": 2,
      "componentType": 5126,
      "count": 303,
      "type": "VEC3"
    },
    {
      "bufferView": 3,
      "componentType": 5126,
      "count": 303,
      "type": "VEC2"
    },
    {
      "bufferView": 4,
      "componentType": 5125,
      "count": 11061,
      "type": "SCALAR"
    },
    {
      "bufferView": 5,
      "componentType": 5126,
      "count": 3815,
      "max": [
        0.33315473794937134,
        0,
        0.81574839353561401
      ],
      "min": [
        -0.3331543505191803,
        -0.77079200744628906,
        -0.025849193334579468
      ],
      "type": "VEC3"
    },
    {
      "bufferView": 6,
      "componentType": 5126,
      "count": 3815,
      "type": "VEC3"
    },
    {
      "bufferView": 7,
      "componentType": 5126,
      "count": 3815,
      "type": "VEC2"
    },
    {
      "bufferView": 8,
      "componentType": 5125,
      "count": 5508,
      "type": "SCALAR"
    },
    {
      "bufferView": 9,
      "componentType": 5126,
      "count": 2138,
      "max": [
        0.21333643794059753,
        0,
        0.75522994995117188
      ],
      "min": [
        -0.21333634853363037,
        -0.77028042078018188,
        -0.099021434783935547
      ],
      "type": "VEC3"
    },
    {
      "bufferView": 10,
      "componentType": 5126,
      "count": 2138,
      "type": "VEC3"
    },
    {
      "bufferView": 11,
      "componentType": 5126,
      "count": 2138,
      "type": "VEC2"
    }
  ],
  "asset": {
    "generator": "Substance Painter 2017.4.0",
    "version": "2.0"
  },
  "bufferViews": [
    {
      "buffer": 0,
      "byteLength": 3960,
      "byteOffset": 0,
      "target": 34963
    },
    {
      "buffer": 0,
      "byteLength": 3636,
      "byteOffset": 3960,
      "target": 34962
    },
    {
      "buffer": 0,
      "byteLength": 3636,
      "byteOffset": 7596,
      "target": 34962
    },
    {
      "buffer": 0,
      "byteLength": 2424,
      "byteOffset": 11232,
      "target": 34962
    },
    {
      "buffer": 0,
      "byteLength": 44244,
      "byteOffset": 13656,
      "target": 34963
    },
    {
      "buffer": 0,
      "byteLength": 45780,
      "byteOffset": 57900,
      "target": 34962
    },
    {
      "buffer": 0,
      "byteLength": 45780,
      "byteOffset": 103680,
      "target": 34962
    },
    {
      "buffer": 0,
      "byteLength": 30520,
      "byteOffset": 149460,
      "target": 34962
    },
    {
      "buffer": 0,
      "byteLength": 22032,
      "byteOffset": 179980,
      "target": 34963
    },
    {
      "buffer": 0,
      "byteLength": 25656,
      "byteOffset": 202012,
      "target": 34962
    },
    {
      "buffer": 0,
      "byteLength": 25656,
      "byteOffset": 227668,
      "target": 34962
    },
    {
      "buffer": 0,
      "byteLength": 17104,
      "byteOffset": 253324,
      "target": 34962
    }
  ],
  "buffers": [
    {
      "byteLength": 270428,
      "uri": "cannon_turret_paint.bin"
    }
  ],
  "images": [
    {
      "uri": "cannon_turret_2_diff.png"
    },
    {
      "uri": "cannon_turret_2_orm.png"
    },
    {
      "uri": "cannon_turret_2_ddn.png"
    }
  ],
  "materials": [
    {
      "alphaMode": "OPAQUE",
      "name": "DefaultMaterial",
      "normalTexture": {
        "index": 2
      },
      "occlusionTexture": {
        "index": 1
      },
      "pbrMetallicRoughness": {
        "baseColorTexture": {
          "index": 0
        },
        "metallicRoughnessTexture": {
          "index": 1
        }
      }
    }
  ],
  "meshes": [
    {
      "name": "turret_rocket_low",
      "primitives": [
        {
          "attributes": {
            "NORMAL": 2,
            "POSITION": 1,
            "TEXCOORD_0": 3
          },
          "indices": 0,
          "material": 0,
          "mode": 4
        }
      ]
    },
    {
      "name": "leg_armor_low",
      "primitives": [
        {
          "attributes": {
            "NORMAL": 6,
            "POSITION": 5,
            "TEXCOORD_0": 7
          },
          "indices": 4,
          "material": 0,
          "mode": 4
        }
      ]
    },
    {
      "name": "cannon_main_head_bottom_low",
      "primitives": [
        {
          "attributes": {
            "NORMAL": 10,
            "POSITION": 9,
            "TEXCOORD_0": 11
          },
          "indices": 8,
          "material": 0,
          "mode": 4
        }
      ]
    }
  ],
  "nodes": [
    {
      "children": [
        1,
        3,
        5
      ],
      "name": "root",
      "scale": [
        145.12794494628906,
        145.12794494628906,
        145.12794494628906
      ],
      "translation": [
        -7.62939453125e-06,
        111.78921508789063,
        -59.94207763671875
      ]
    },
    {
      "children": [
        2
      ],
      "name": "turret_rocket_low"
    },
    {
      "mesh": 0,
      "name": "turret_rocket_low"
    },
    {
      "children": [
        4
      ],
      "name": "leg_armor_low"
    },
    {
      "mesh": 1,
      "name": "leg_armor_low"
    },
    {
      "children": [
        6
      ],
      "name": "cannon_main_head_bottom_low"
    },
    {
      "mesh": 2,
      "name": "cannon_main_head_bottom_low"
    }
  ],
  "samplers": [
    {
      "magFilter": 9729,
      "minFilter": 9985,
      "wrapS": 10497,
      "wrapT": 10497
    }
  ],
  "scene": 0,
  "scenes": [
    {
      "name": "Scene",
      "nodes": [
        0
      ]
    }
  ],
  "textures": [
    {
      "sampler": 0,
      "source": 0
    },
    {
      "sampler": 0,
      "source": 1
    },
    {
      "sampler": 0,
      "source": 2
    }
  ]
}
