{
  "accessors": [
    {
      "bufferView": 0,
      "componentType": 5125,
      "count": 990,
      "type": "SCALAR"
    },
    {
      "bufferView": 1,
      "componentType": 5126,
      "count": 303,
      "max": [
        0.14649325609207153,
        0,
        0.26470914483070374
      ],
      "min": [
        -0.14649325609207153,
        -0.64643126726150513,
        -0.025672752410173416
      ],
      "type": "VEC3"
    },
    {
      "bufferView": 2,
      "componentType": 5126,
      "count": 303,
      "type": "VEC3"
    },
    {
      "bufferView": 3,
      "componentType": 5126,
      "count": 303,
      "type": "VEC2"
    },
    {
      "bufferView": 4,
      "componentType": 5125,
      "count": 11061,
      "type": "SCALAR"
    },
    {
      "bufferView": 5,
      "componentType": 5126,
      "count": 3653,
      "max": [
        0.7283896803855896,
        0.36311167478561401,
        0.99999994039535522
      ],
      "min": [
        -0.7283896803855896,
        -0.64754962921142578,
        -0.84001994132995605
      ],
      "type": "VEC3"
    },
    {
      "bufferView": 6,
      "componentType": 5126,
      "count": 3653,
      "type": "VEC3"
    },
    {
      "bufferView": 7,
      "componentType": 5126,
      "count": 3653,
      "type": "VEC2"
    },
    {
      "bufferView": 8,
      "componentType": 5125,
      "count": 5508,
      "type": "SCALAR"
    },
    {
      "bufferView": 9,
      "componentType": 5126,
      "count": 2033,
      "max": [
        0.46642628312110901,
        0.64754968881607056,
        0.86768549680709839
      ],
      "min": [
        -0.46642628312110901,
        -0.6464310884475708,
        -1
      ],
      "type": "VEC3"
    },
    {
      "bufferView": 10,
      "componentType": 5126,
      "count": 2033,
      "type": "VEC3"
    },
    {
      "bufferView": 11,
      "componentType": 5126,
      "count": 2033,
      "type": "VEC2"
    }
  ],
  "asset": {
    "generator": "Substance Painter 2017.4.0",
    "version": "2.0"
  },
  "bufferViews": [
    {
      "buffer": 0,
      "byteLength": 3960,
      "byteOffset": 0,
      "target": 34963
    },
    {
      "buffer": 0,
      "byteLength": 3636,
      "byteOffset": 3960,
      "target": 34962
    },
    {
      "buffer": 0,
      "byteLength": 3636,
      "byteOffset": 7596,
      "target": 34962
    },
    {
      "buffer": 0,
      "byteLength": 2424,
      "byteOffset": 11232,
      "target": 34962
    },
    {
      "buffer": 0,
      "byteLength": 44244,
      "byteOffset": 13656,
      "target": 34963
    },
    {
      "buffer": 0,
      "byteLength": 43836,
      "byteOffset": 57900,
      "target": 34962
    },
    {
      "buffer": 0,
      "byteLength": 43836,
      "byteOffset": 101736,
      "target": 34962
    },
    {
      "buffer": 0,
      "byteLength": 29224,
      "byteOffset": 145572,
      "target": 34962
    },
    {
      "buffer": 0,
      "byteLength": 22032,
      "byteOffset": 174796,
      "target": 34963
    },
    {
      "buffer": 0,
      "byteLength": 24396,
      "byteOffset": 196828,
      "target": 34962
    },
    {
      "buffer": 0,
      "byteLength": 24396,
      "byteOffset": 221224,
      "target": 34962
    },
    {
      "buffer": 0,
      "byteLength": 16264,
      "byteOffset": 245620,
      "target": 34962
    }
  ],
  "buffers": [
    {
      "byteLength": 261884,
      "uri": "PBR - Metallic Roughness.bin"
    }
  ],
  "images": [
    {
      "uri": "cannon_2_merged_uvs_diff.png"
    },
    {
      "uri": "cannon_2_merged_uvs_orm.png"
    },
    {
      "uri": "cannon_2_merged_uvs_ddn.png"
    }
  ],
  "materials": [
    {
      "alphaMode": "OPAQUE",
      "name": "DefaultMaterial",
      "normalTexture": {
        "index": 2
      },
      "occlusionTexture": {
        "index": 1
      },
      "pbrMetallicRoughness": {
        "baseColorTexture": {
          "index": 0
        },
        "metallicRoughnessTexture": {
          "index": 1
        }
      }
    }
  ],
  "meshes": [
    {
      "name": "turret_rocket_low",
      "primitives": [
        {
          "attributes": {
            "NORMAL": 2,
            "POSITION": 1,
            "TEXCOORD_0": 3
          },
          "indices": 0,
          "material": 0,
          "mode": 4
        }
      ]
    },
    {
      "name": "cannon_main_legs",
      "primitives": [
        {
          "attributes": {
            "NORMAL": 6,
            "POSITION": 5,
            "TEXCOORD_0": 7
          },
          "indices": 4,
          "material": 0,
          "mode": 4
        }
      ]
    },
    {
      "name": "cannon_main_head",
      "primitives": [
        {
          "attributes": {
            "NORMAL": 10,
            "POSITION": 9,
            "TEXCOORD_0": 11
          },
          "indices": 8,
          "material": 0,
          "mode": 4
        }
      ]
    }
  ],
  "nodes": [
    {
      "children": [
        1,
        3,
        5
      ],
      "name": "root",
      "scale": [
        655.0379638671875,
        655.0379638671875,
        655.0379638671875
      ],
      "translation": [
        0,
        423.43701171875,
        -78.2889404296875
      ]
    },
    {
      "children": [
        2
      ],
      "name": "turret_rocket_low"
    },
    {
      "mesh": 0,
      "name": "turret_rocket_low"
    },
    {
      "children": [
        4
      ],
      "name": "cannon_main_legs"
    },
    {
      "mesh": 1,
      "name": "cannon_main_legs"
    },
    {
      "children": [
        6
      ],
      "name": "cannon_main_head"
    },
    {
      "mesh": 2,
      "name": "cannon_main_head"
    }
  ],
  "samplers": [
    {
      "magFilter": 9729,
      "minFilter": 9985,
      "wrapS": 10497,
      "wrapT": 10497
    }
  ],
  "scene": 0,
  "scenes": [
    {
      "name": "Scene",
      "nodes": [
        0
      ]
    }
  ],
  "textures": [
    {
      "sampler": 0,
      "source": 0
    },
    {
      "sampler": 0,
      "source": 1
    },
    {
      "sampler": 0,
      "source": 2
    }
  ]
}
