# 3ds Max Wavefront OBJ Exporter v0.97b - (c)2007 guruware
# File Created: 20.02.2018 16:12:18

mtllib cannon_turret_rocket.mtl

#
# object turret_rocket_low
#

v  84.5760 0.0000 -42.9384
v  84.5761 3.4569 -42.9384
v  96.0814 3.4569 -0.0000
v  96.0814 0.0000 -0.0000
v  48.0407 0.0000 -83.2089
v  48.0407 3.4569 -83.2089
v  79.4737 3.4569 -51.7758
v  79.4737 0.0000 -51.7758
v  -0.0000 0.0000 -96.0814
v  -0.0000 3.4569 -96.0814
v  -48.0407 0.0000 -83.2089
v  -48.0407 3.4569 -83.2089
v  -79.4738 0.0000 -51.7758
v  -79.4738 3.4569 -51.7758
v  -96.0814 0.0000 -0.0000
v  -96.0814 3.4569 -0.0000
v  -84.5761 3.4569 -42.9384
v  -84.5761 0.0000 -42.9384
v  -83.2089 0.0000 48.0407
v  -83.2089 3.4569 48.0407
v  -48.0407 0.0000 83.2089
v  -48.0407 3.4569 83.2089
v  -5.1024 0.0000 94.7142
v  -5.1024 3.4569 94.7142
v  48.0406 0.0000 83.2089
v  48.0406 3.4569 83.2089
v  5.1023 3.4569 94.7142
v  5.1023 0.0000 94.7142
v  83.2089 0.0000 48.0407
v  83.2089 3.4569 48.0407
v  69.9060 327.6283 -40.3603
v  80.7205 327.6283 0.0000
v  96.0814 276.8845 -0.0000
v  83.2089 276.8845 -48.0407
v  40.3602 327.6283 -69.9060
v  48.0407 276.8845 -83.2089
v  -0.0000 327.6283 -80.7205
v  -0.0000 276.8845 -96.0814
v  -40.3603 327.6283 -69.9060
v  -48.0407 276.8845 -83.2089
v  -69.9060 327.6283 -40.3603
v  -83.2089 276.8845 -48.0407
v  -80.7205 327.6283 -0.0000
v  -96.0814 276.8845 -0.0000
v  -69.9060 327.6283 40.3602
v  -83.2089 276.8845 48.0407
v  -40.3603 327.6283 69.9060
v  -48.0407 276.8845 83.2089
v  -0.0000 327.6283 80.7205
v  -0.0001 276.8845 96.0814
v  40.3602 327.6283 69.9060
v  48.0406 276.8845 83.2089
v  69.9060 327.6283 40.3603
v  83.2089 276.8845 48.0407
v  53.0045 373.6541 -0.0000
v  45.9033 373.6541 -26.5023
v  13.8141 415.0977 -7.9756
v  15.9511 415.0977 -0.0000
v  26.5023 373.6541 -45.9033
v  7.9755 415.0977 -13.8141
v  -0.0000 373.6541 -53.0046
v  -0.0000 415.0977 -15.9511
v  -26.5023 373.6541 -45.9033
v  -7.9756 415.0977 -13.8141
v  -45.9033 373.6541 -26.5023
v  -13.8141 415.0977 -7.9756
v  -53.0046 373.6541 -0.0000
v  -15.9512 415.0977 -0.0000
v  -45.9033 373.6541 26.5023
v  -13.8141 415.0977 7.9756
v  -26.5023 373.6541 45.9033
v  -7.9756 415.0977 13.8141
v  -0.0000 373.6541 53.0046
v  -0.0000 415.0977 15.9511
v  26.5022 373.6541 45.9033
v  7.9755 415.0977 13.8141
v  45.9033 373.6541 26.5023
v  13.8141 415.0977 7.9756
v  -0.0000 423.3904 -0.0000
v  84.9283 0.0000 -0.0000
v  73.5500 0.0000 -42.4641
v  73.5500 0.0000 42.4642
v  42.4641 0.0000 73.5501
v  -0.0000 0.0000 84.9283
v  -42.4642 0.0000 73.5500
v  -73.5501 0.0000 42.4641
v  -84.9283 0.0000 -0.0000
v  -73.5501 0.0000 -42.4641
v  -42.4642 0.0000 -73.5500
v  -0.0000 0.0000 -84.9283
v  42.4641 0.0000 -73.5501
v  73.7752 20.2778 -0.0000
v  63.8912 20.2778 -36.8876
v  63.8912 20.2778 36.8877
v  36.8876 20.2778 63.8912
v  -0.0000 20.2778 73.7752
v  -36.8876 20.2778 63.8912
v  -63.8912 20.2778 36.8876
v  -73.7752 20.2778 -0.0000
v  -63.8912 20.2778 -36.8876
v  -36.8876 20.2778 -63.8912
v  -0.0000 20.2778 -73.7752
v  36.8876 20.2778 -63.8912
v  37.4855 20.2778 -0.0000
v  32.4634 20.2778 -18.7427
v  32.4633 20.2778 18.7428
v  18.7427 20.2778 32.4634
v  -0.0000 20.2778 37.4855
v  -18.7428 20.2778 32.4634
v  -32.4634 20.2778 18.7427
v  -37.4855 20.2778 -0.0000
v  -32.4634 20.2778 -18.7427
v  -18.7428 20.2778 -32.4634
v  -0.0000 20.2778 -37.4855
v  18.7427 20.2778 -32.4634
v  37.4855 55.7436 -0.0000
v  32.4634 55.7436 -18.7427
v  32.4633 55.7436 18.7428
v  18.7427 55.7436 32.4634
v  -0.0000 55.7436 37.4855
v  -18.7428 55.7436 32.4634
v  -32.4634 55.7436 18.7427
v  -37.4855 55.7436 -0.0000
v  -32.4634 55.7436 -18.7427
v  -18.7428 55.7436 -32.4634
v  -0.0000 55.7436 -37.4855
v  18.7427 55.7436 -32.4634
v  -4.7978 3.3093 127.4343
v  4.7978 3.3093 127.4343
v  -4.7978 116.1601 104.6018
v  4.7978 116.1601 104.6018
v  5.1023 116.2307 94.7142
v  -5.1024 116.2307 94.7142
v  112.7603 3.3093 -59.5622
v  107.9625 3.3093 -67.8722
v  92.9867 116.1601 -48.1459
v  88.1889 116.1601 -56.4559
v  79.4737 116.2307 -51.7758
v  84.5760 116.2307 -42.9384
v  -107.9625 3.3093 -67.8722
v  -112.7603 3.3093 -59.5622
v  -88.1889 116.1601 -56.4559
v  -92.9867 116.1601 -48.1459
v  -84.5761 116.2307 -42.9384
v  -79.4738 116.2307 -51.7758
v  -0.0000 55.7436 -0.0000
v  96.0814 126.8526 -0.0000
v  83.2089 126.8526 -48.0407
v  48.0407 126.8526 -83.2089
v  -0.0000 126.8526 -96.0814
v  -48.0407 126.8526 -83.2089
v  -83.2089 126.8526 -48.0407
v  -96.0814 126.8526 -0.0000
v  -83.2089 126.8526 48.0407
v  -48.0407 126.8526 83.2089
v  -0.0001 126.8526 96.0814
v  48.0406 126.8526 83.2089
v  83.2089 126.8526 48.0407
v  96.0814 116.2307 -0.0000
v  48.0407 116.2307 -83.2089
v  -0.0000 116.2307 -96.0814
v  -48.0407 116.2307 -83.2089
v  -96.0814 116.2307 -0.0000
v  -83.2089 116.2307 48.0407
v  -48.0407 116.2307 83.2089
v  48.0406 116.2307 83.2089
v  83.2089 116.2307 48.0407
# 167 vertices

vn 0.9239 -0.0000 -0.3827
vn 0.9398 -0.0000 -0.3418
vn 1.0000 -0.0000 0.0000
vn 1.0000 0.0000 0.0000
vn 0.5000 -0.0000 -0.8660
vn 0.7659 -0.0000 -0.6430
vn 0.7934 -0.0000 -0.6088
vn 0.0000 -0.0000 -1.0000
vn -0.0000 -0.0000 -1.0000
vn -0.5000 -0.0000 -0.8660
vn -0.7934 -0.0000 -0.6088
vn -0.7659 -0.0000 -0.6430
vn -1.0000 -0.0000 -0.0000
vn -0.9398 -0.0000 -0.3418
vn -0.9239 -0.0000 -0.3827
vn -0.8660 -0.0000 0.5000
vn -0.8660 0.0000 0.5000
vn -0.5000 -0.0000 0.8660
vn -0.1305 -0.0000 0.9914
vn -0.1739 -0.0000 0.9848
vn 0.5000 0.0000 0.8660
vn 0.1739 -0.0000 0.9848
vn 0.1305 0.0000 0.9914
vn 0.8660 0.0000 0.5000
vn 0.7943 0.3985 -0.4586
vn 0.9172 0.3985 0.0000
vn 0.9897 0.1431 0.0000
vn 0.8571 0.1431 -0.4949
vn 0.4586 0.3985 -0.7943
vn 0.4949 0.1431 -0.8571
vn -0.0000 0.3985 -0.9172
vn -0.0000 0.1431 -0.9897
vn -0.4586 0.3985 -0.7943
vn -0.4949 0.1431 -0.8571
vn -0.7943 0.3985 -0.4586
vn -0.8571 0.1431 -0.4949
vn -0.9172 0.3985 -0.0000
vn -0.9897 0.1431 -0.0000
vn -0.7943 0.3985 0.4586
vn -0.8571 0.1431 0.4949
vn -0.4586 0.3985 0.7943
vn -0.4949 0.1431 0.8571
vn -0.0000 0.3985 0.9172
vn -0.0000 0.1431 0.9897
vn 0.4586 0.3985 0.7943
vn 0.4949 0.1431 0.8571
vn 0.7943 0.3985 0.4586
vn 0.8571 0.1431 0.4949
vn 0.7455 0.6665 0.0000
vn 0.6456 0.6665 -0.3727
vn 0.5468 0.7755 -0.3157
vn 0.6314 0.7755 0.0000
vn 0.3727 0.6665 -0.6456
vn 0.3157 0.7755 -0.5468
vn -0.0000 0.6665 -0.7455
vn 0.0000 0.7755 -0.6314
vn -0.3727 0.6665 -0.6456
vn -0.3157 0.7755 -0.5468
vn -0.6456 0.6665 -0.3727
vn -0.5468 0.7755 -0.3157
vn -0.7455 0.6665 -0.0000
vn -0.6314 0.7755 -0.0000
vn -0.6456 0.6665 0.3727
vn -0.5468 0.7755 0.3157
vn -0.3727 0.6665 0.6456
vn -0.3157 0.7755 0.5468
vn -0.0000 0.6665 0.7455
vn -0.0000 0.7755 0.6314
vn 0.3727 0.6665 0.6456
vn 0.3157 0.7755 0.5468
vn 0.6456 0.6665 0.3727
vn 0.5468 0.7755 0.3157
vn -0.0000 1.0000 0.0000
vn 0.0000 -1.0000 -0.0000
vn -0.7588 -0.4819 0.4381
vn -0.8762 -0.4819 -0.0000
vn -0.7588 -0.4819 -0.4381
vn -0.4381 -0.4819 -0.7588
vn 0.0000 -0.4819 -0.8762
vn 0.4381 -0.4819 -0.7588
vn 0.7588 -0.4819 -0.4381
vn 0.8762 -0.4819 0.0000
vn 0.7588 -0.4819 0.4381
vn 0.4381 -0.4819 0.7588
vn 0.0000 -0.4819 0.8762
vn -0.4381 -0.4819 0.7588
vn -1.0000 0.0000 -0.0000
vn -0.8660 0.0000 -0.5000
vn -0.5000 0.0000 -0.8660
vn 0.0000 0.0000 -1.0000
vn 0.5000 0.0000 -0.8660
vn 0.8660 0.0000 -0.5000
vn 0.0000 0.0000 1.0000
vn -0.5000 0.0000 0.8660
vn 0.0000 -1.0000 -0.0045
vn -0.0000 1.0000 0.0071
vn 0.0000 1.0000 0.0071
vn 0.0000 0.1983 0.9801
vn 0.9999 0.0004 0.0106
vn 1.0000 -0.0000 0.0093
vn 0.9996 0.0051 0.0269
vn 0.9995 0.0062 0.0308
vn -0.9996 0.0003 0.0273
vn -0.9995 -0.0000 0.0308
vn -0.9999 0.0018 0.0105
vn -1.0000 0.0019 0.0093
vn -0.0039 -1.0000 0.0023
vn 0.0062 1.0000 -0.0036
vn 0.8488 0.1983 -0.4901
vn -0.4908 0.0004 -0.8713
vn -0.4919 -0.0000 -0.8706
vn -0.4765 0.0051 -0.8792
vn -0.4731 0.0062 -0.8810
vn 0.5235 0.0003 0.8520
vn 0.5264 0.0000 0.8502
vn 0.5091 0.0018 0.8607
vn 0.5080 0.0019 0.8613
vn 0.0039 -1.0000 0.0023
vn -0.0062 1.0000 -0.0036
vn -0.8488 0.1983 -0.4901
vn -0.5092 0.0004 0.8607
vn -0.5080 0.0000 0.8613
vn -0.5231 0.0051 0.8522
vn -0.5265 0.0062 0.8502
vn 0.4762 0.0003 -0.8794
vn 0.4731 0.0000 -0.8810
vn 0.4909 0.0018 -0.8712
vn 0.4919 0.0019 -0.8706
vn 0.7419 0.5159 -0.4283
vn 0.8567 0.5159 0.0000
vn 0.4283 0.5159 -0.7419
vn -0.0000 0.5159 -0.8567
vn -0.4283 0.5159 -0.7419
vn -0.7419 0.5159 -0.4283
vn -0.8567 0.5159 -0.0000
vn -0.7419 0.5159 0.4283
vn -0.4283 0.5159 0.7419
vn -0.0000 0.5159 0.8567
vn 0.4283 0.5159 0.7419
vn 0.7419 0.5159 0.4283
vn 0.8659 -0.0187 -0.4999
vn -0.0000 0.0000 -1.0000
vn -0.8659 -0.0187 -0.4999
vn -0.0000 -0.0187 0.9998
vn 0.5000 -0.0000 0.8660
vn 0.9477 -0.0306 -0.3177
vn 0.7490 -0.0306 -0.6619
vn -0.7490 -0.0306 -0.6619
vn -0.9477 -0.0306 -0.3177
vn -0.1987 -0.0306 0.9796
vn 0.1987 -0.0306 0.9796
# 151 vertex normals

vt 0.2802 0.4056 0.0000
vt 0.2802 0.4045 0.0000
vt 0.2914 0.4045 0.0000
vt 0.2914 0.4056 0.0000
vt 0.2712 0.4056 0.0000
vt 0.2712 0.4045 0.0000
vt 0.2776 0.4045 0.0000
vt 0.2776 0.4056 0.0000
vt 0.2620 0.4056 0.0000
vt 0.2620 0.4045 0.0000
vt 0.2528 0.4056 0.0000
vt 0.2528 0.4045 0.0000
vt 0.2458 0.4056 0.0000
vt 0.2458 0.4045 0.0000
vt 0.2326 0.4056 0.0000
vt 0.2326 0.4045 0.0000
vt 0.2429 0.4045 0.0000
vt 0.2429 0.4056 0.0000
vt 0.2249 0.4056 0.0000
vt 0.2249 0.4045 0.0000
vt 0.2173 0.4056 0.0000
vt 0.2173 0.4045 0.0000
vt 0.2114 0.4056 0.0000
vt 0.2114 0.4045 0.0000
vt 0.2028 0.4056 0.0000
vt 0.2028 0.4045 0.0000
vt 0.2093 0.4045 0.0000
vt 0.2093 0.4056 0.0000
vt 0.1961 0.4056 0.0000
vt 0.1961 0.4045 0.0000
vt 0.2990 0.4045 0.0000
vt 0.2990 0.4056 0.0000
vt 0.2786 0.3276 0.0000
vt 0.2914 0.3276 0.0000
vt 0.2914 0.3364 0.0000
vt 0.2786 0.3364 0.0000
vt 0.2712 0.3276 0.0000
vt 0.2712 0.3364 0.0000
vt 0.2620 0.3276 0.0000
vt 0.2620 0.3364 0.0000
vt 0.2528 0.3276 0.0000
vt 0.2528 0.3364 0.0000
vt 0.2446 0.3276 0.0000
vt 0.2446 0.3364 0.0000
vt 0.2326 0.3276 0.0000
vt 0.2326 0.3364 0.0000
vt 0.2249 0.3276 0.0000
vt 0.2249 0.3364 0.0000
vt 0.2173 0.3276 0.0000
vt 0.2173 0.3364 0.0000
vt 0.2105 0.3276 0.0000
vt 0.2105 0.3364 0.0000
vt 0.2028 0.3276 0.0000
vt 0.2028 0.3364 0.0000
vt 0.1961 0.3276 0.0000
vt 0.1961 0.3364 0.0000
vt 0.2990 0.3276 0.0000
vt 0.2990 0.3364 0.0000
vt 0.3478 0.3477 0.0000
vt 0.3453 0.3545 0.0000
vt 0.3368 0.3499 0.0000
vt 0.3378 0.3482 0.0000
vt 0.3399 0.3591 0.0000
vt 0.3349 0.3510 0.0000
vt 0.3331 0.3606 0.0000
vt 0.3327 0.3511 0.0000
vt 0.3264 0.3587 0.0000
vt 0.3308 0.3502 0.0000
vt 0.3214 0.3537 0.0000
vt 0.3295 0.3484 0.0000
vt 0.3194 0.3467 0.0000
vt 0.3294 0.3463 0.0000
vt 0.3219 0.3400 0.0000
vt 0.3304 0.3445 0.0000
vt 0.3272 0.3353 0.0000
vt 0.3322 0.3434 0.0000
vt 0.3340 0.3338 0.0000
vt 0.3344 0.3433 0.0000
vt 0.3408 0.3358 0.0000
vt 0.3364 0.3443 0.0000
vt 0.3458 0.3408 0.0000
vt 0.3376 0.3461 0.0000
vt 0.3336 0.3472 0.0000
vt 0.1780 0.9307 0.0000
vt 0.1816 0.9432 0.0000
vt 0.1783 0.9433 0.0000
vt 0.1747 0.9309 0.0000
vt 0.1781 0.9574 0.0000
vt 0.1752 0.9558 0.0000
vt 0.1679 0.9679 0.0000
vt 0.1662 0.9651 0.0000
vt 0.1552 0.9715 0.0000
vt 0.1537 0.9686 0.0000
vt 0.1522 0.9715 0.0000
vt 0.1394 0.9682 0.0000
vt 0.1410 0.9653 0.0000
vt 0.1288 0.9577 0.0000
vt 0.1317 0.9560 0.0000
vt 0.1248 0.9432 0.0000
vt 0.1282 0.9432 0.0000
vt 0.1283 0.9302 0.0000
vt 0.1316 0.9304 0.0000
vt 0.1298 0.9276 0.0000
vt 0.1393 0.9180 0.0000
vt 0.1410 0.9209 0.0000
vt 0.1538 0.9141 0.0000
vt 0.1538 0.9174 0.0000
vt 0.1677 0.9185 0.0000
vt 0.1660 0.9214 0.0000
vt 0.1764 0.9281 0.0000
vt 0.8539 0.0216 0.0000
vt 0.8407 0.0216 0.0000
vt 0.8407 0.0152 0.0000
vt 0.8539 0.0152 0.0000
vt 0.8276 0.0216 0.0000
vt 0.8276 0.0152 0.0000
vt 0.8148 0.0216 0.0000
vt 0.8148 0.0152 0.0000
vt 0.8030 0.0216 0.0000
vt 0.8030 0.0152 0.0000
vt 0.7915 0.0216 0.0000
vt 0.7915 0.0152 0.0000
vt 0.7794 0.0216 0.0000
vt 0.7794 0.0152 0.0000
vt 0.7666 0.0216 0.0000
vt 0.7666 0.0152 0.0000
vt 0.7534 0.0216 0.0000
vt 0.7534 0.0152 0.0000
vt 0.7406 0.0216 0.0000
vt 0.7406 0.0152 0.0000
vt 0.7283 0.0216 0.0000
vt 0.7283 0.0152 0.0000
vt 0.8755 0.0216 0.0000
vt 0.8660 0.0216 0.0000
vt 0.8660 0.0152 0.0000
vt 0.8755 0.0152 0.0000
vt 0.3242 0.9054 0.0000
vt 0.3157 0.9054 0.0000
vt 0.3157 0.8947 0.0000
vt 0.3242 0.8947 0.0000
vt 0.3072 0.9054 0.0000
vt 0.3072 0.8947 0.0000
vt 0.2987 0.9054 0.0000
vt 0.2987 0.8947 0.0000
vt 0.2902 0.9054 0.0000
vt 0.2902 0.8947 0.0000
vt 0.2817 0.9054 0.0000
vt 0.2817 0.8947 0.0000
vt 0.2732 0.9054 0.0000
vt 0.2732 0.8947 0.0000
vt 0.2647 0.9054 0.0000
vt 0.2647 0.8947 0.0000
vt 0.2562 0.9054 0.0000
vt 0.2562 0.8947 0.0000
vt 0.2477 0.9054 0.0000
vt 0.2477 0.8947 0.0000
vt 0.2392 0.9054 0.0000
vt 0.2392 0.8947 0.0000
vt 0.2279 0.9054 0.0000
vt 0.2279 0.8947 0.0000
vt 0.3318 0.9054 0.0000
vt 0.3318 0.8947 0.0000
vt 0.1278 0.7140 0.0000
vt 0.1329 0.7140 0.0000
vt 0.1329 0.7222 0.0000
vt 0.1278 0.7222 0.0000
vt 0.1380 0.7140 0.0000
vt 0.1380 0.7222 0.0000
vt 0.1446 0.7140 0.0000
vt 0.1446 0.7222 0.0000
vt 0.1521 0.7140 0.0000
vt 0.1521 0.7222 0.0000
vt 0.1599 0.7140 0.0000
vt 0.1599 0.7222 0.0000
vt 0.1674 0.7140 0.0000
vt 0.1674 0.7222 0.0000
vt 0.0916 0.7140 0.0000
vt 0.0938 0.7140 0.0000
vt 0.0938 0.7222 0.0000
vt 0.0916 0.7222 0.0000
vt 0.0989 0.7140 0.0000
vt 0.0989 0.7222 0.0000
vt 0.1055 0.7140 0.0000
vt 0.1055 0.7222 0.0000
vt 0.1130 0.7140 0.0000
vt 0.1130 0.7222 0.0000
vt 0.1207 0.7140 0.0000
vt 0.1207 0.7222 0.0000
vt 0.1845 0.3088 0.0000
vt 0.1845 0.2992 0.0000
vt 0.1874 0.2992 0.0000
vt 0.1874 0.3088 0.0000
vt 0.1889 0.3047 0.0000
vt 0.1918 0.3047 0.0000
vt 0.1918 0.3076 0.0000
vt 0.1889 0.3076 0.0000
vt 0.9037 0.1013 0.0000
vt 0.9065 0.1013 0.0000
vt 0.9065 0.1353 0.0000
vt 0.9037 0.1353 0.0000
vt 0.5692 0.5064 0.0000
vt 0.5755 0.5064 0.0000
vt 0.5755 0.5401 0.0000
vt 0.5692 0.5401 0.0000
vt 0.3170 0.3319 0.0000
vt 0.3107 0.3319 0.0000
vt 0.3107 0.2982 0.0000
vt 0.3170 0.2982 0.0000
vt 0.3703 0.3574 0.0000
vt 0.3607 0.3574 0.0000
vt 0.3607 0.3545 0.0000
vt 0.3703 0.3545 0.0000
vt 0.5808 0.5067 0.0000
vt 0.5808 0.5097 0.0000
vt 0.5778 0.5097 0.0000
vt 0.5778 0.5067 0.0000
vt 0.3493 0.3244 0.0000
vt 0.3522 0.3244 0.0000
vt 0.3522 0.3584 0.0000
vt 0.3493 0.3584 0.0000
vt 0.1667 0.7333 0.0000
vt 0.1667 0.7396 0.0000
vt 0.1330 0.7396 0.0000
vt 0.1330 0.7333 0.0000
vt 0.5959 0.5014 0.0000
vt 0.5896 0.5014 0.0000
vt 0.5896 0.4678 0.0000
vt 0.5959 0.4678 0.0000
vt 0.1843 0.3136 0.0000
vt 0.1940 0.3136 0.0000
vt 0.1940 0.3166 0.0000
vt 0.1843 0.3166 0.0000
vt 0.1933 0.3125 0.0000
vt 0.1933 0.3096 0.0000
vt 0.1962 0.3096 0.0000
vt 0.1962 0.3125 0.0000
vt 0.7984 0.0825 0.0000
vt 0.8012 0.0825 0.0000
vt 0.8012 0.1165 0.0000
vt 0.7984 0.1165 0.0000
vt 0.5602 0.5040 0.0000
vt 0.5665 0.5040 0.0000
vt 0.5665 0.5377 0.0000
vt 0.5602 0.5377 0.0000
vt 0.0923 0.7397 0.0000
vt 0.0923 0.7334 0.0000
vt 0.1260 0.7334 0.0000
vt 0.1260 0.7397 0.0000
vt 0.1639 0.9357 0.0000
vt 0.1653 0.9412 0.0000
vt 0.1543 0.9412 0.0000
vt 0.1639 0.9468 0.0000
vt 0.1598 0.9508 0.0000
vt 0.1543 0.9523 0.0000
vt 0.1487 0.9508 0.0000
vt 0.1447 0.9468 0.0000
vt 0.1432 0.9412 0.0000
vt 0.1447 0.9357 0.0000
vt 0.1487 0.9316 0.0000
vt 0.1543 0.9302 0.0000
vt 0.1598 0.9316 0.0000
vt 0.2786 0.3186 0.0000
vt 0.2914 0.3186 0.0000
vt 0.2712 0.3186 0.0000
vt 0.2620 0.3186 0.0000
vt 0.2528 0.3186 0.0000
vt 0.2446 0.3186 0.0000
vt 0.2326 0.3186 0.0000
vt 0.2249 0.3186 0.0000
vt 0.2173 0.3186 0.0000
vt 0.2105 0.3186 0.0000
vt 0.2028 0.3186 0.0000
vt 0.1961 0.3186 0.0000
vt 0.2990 0.3186 0.0000
vt 0.2914 0.3777 0.0000
vt 0.2786 0.3777 0.0000
vt 0.2712 0.3777 0.0000
vt 0.2620 0.3777 0.0000
vt 0.2528 0.3777 0.0000
vt 0.2446 0.3777 0.0000
vt 0.2326 0.3777 0.0000
vt 0.2249 0.3777 0.0000
vt 0.2173 0.3777 0.0000
vt 0.2105 0.3777 0.0000
vt 0.2028 0.3777 0.0000
vt 0.1961 0.3777 0.0000
vt 0.2990 0.3777 0.0000
vt 0.2914 0.3801 0.0000
vt 0.2798 0.3801 0.0000
vt 0.2774 0.3801 0.0000
vt 0.2712 0.3801 0.0000
vt 0.2620 0.3801 0.0000
vt 0.2528 0.3801 0.0000
vt 0.2455 0.3801 0.0000
vt 0.2432 0.3801 0.0000
vt 0.2326 0.3801 0.0000
vt 0.2249 0.3801 0.0000
vt 0.2173 0.3801 0.0000
vt 0.2109 0.3801 0.0000
vt 0.2092 0.3801 0.0000
vt 0.2028 0.3801 0.0000
vt 0.1961 0.3801 0.0000
vt 0.2990 0.3801 0.0000
# 303 texture coords

g turret_rocket_low
usemtl wire_213154229
s 1
f 1/1/1 2/2/2 3/3/3 4/4/4 
f 5/5/5 6/6/5 7/7/6 8/8/7 
f 9/9/8 10/10/9 6/6/5 5/5/5 
f 11/11/10 12/12/10 10/10/9 9/9/8 
f 13/13/11 14/14/12 12/12/10 11/11/10 
f 15/15/13 16/16/13 17/17/14 18/18/15 
f 19/19/16 20/20/17 16/16/13 15/15/13 
f 21/21/18 22/22/18 20/20/17 19/19/16 
f 23/23/19 24/24/20 22/22/18 21/21/18 
f 25/25/21 26/26/21 27/27/22 28/28/23 
f 29/29/24 30/30/24 26/26/21 25/25/21 
f 4/4/4 3/3/3 30/31/24 29/32/24 
f 31/33/25 32/34/26 33/35/27 34/36/28 
f 35/37/29 31/33/25 34/36/28 36/38/30 
f 37/39/31 35/37/29 36/38/30 38/40/32 
f 39/41/33 37/39/31 38/40/32 40/42/34 
f 41/43/35 39/41/33 40/42/34 42/44/36 
f 43/45/37 41/43/35 42/44/36 44/46/38 
f 45/47/39 43/45/37 44/46/38 46/48/40 
f 47/49/41 45/47/39 46/48/40 48/50/42 
f 49/51/43 47/49/41 48/50/42 50/52/44 
f 51/53/45 49/51/43 50/52/44 52/54/46 
f 53/55/47 51/53/45 52/54/46 54/56/48 
f 32/34/26 53/57/47 54/58/48 33/35/27 
s 2
f 55/59/49 56/60/50 57/61/51 58/62/52 
f 56/60/50 59/63/53 60/64/54 57/61/51 
f 59/63/53 61/65/55 62/66/56 60/64/54 
f 61/65/55 63/67/57 64/68/58 62/66/56 
f 63/67/57 65/69/59 66/70/60 64/68/58 
f 65/69/59 67/71/61 68/72/62 66/70/60 
f 67/71/61 69/73/63 70/74/64 68/72/62 
f 69/73/63 71/75/65 72/76/66 70/74/64 
f 71/75/65 73/77/67 74/78/68 72/76/66 
f 73/77/67 75/79/69 76/80/70 74/78/68 
f 75/79/69 77/81/71 78/82/72 76/80/70 
f 77/81/71 55/59/49 58/62/52 78/82/72 
f 58/62/52 57/61/51 79/83/73 
f 57/61/51 60/64/54 79/83/73 
f 60/64/54 62/66/56 79/83/73 
f 62/66/56 64/68/58 79/83/73 
f 64/68/58 66/70/60 79/83/73 
f 66/70/60 68/72/62 79/83/73 
f 68/72/62 70/74/64 79/83/73 
f 70/74/64 72/76/66 79/83/73 
f 72/76/66 74/78/68 79/83/73 
f 74/78/68 76/80/70 79/83/73 
f 76/80/70 78/82/72 79/83/73 
f 78/82/72 58/62/52 79/83/73 
f 1/84/74 4/85/74 80/86/74 81/87/74 
f 4/85/74 29/88/74 82/89/74 80/86/74 
f 29/88/74 25/90/74 83/91/74 82/89/74 
f 25/90/74 28/92/74 84/93/74 83/91/74 
f 23/94/74 21/95/74 85/96/74 84/93/74 
f 21/95/74 19/97/74 86/98/74 85/96/74 
f 19/97/74 15/99/74 87/100/74 86/98/74 
f 15/99/74 18/101/74 88/102/74 87/100/74 
f 13/103/74 11/104/74 89/105/74 88/102/74 
f 11/104/74 9/106/74 90/107/74 89/105/74 
f 9/106/74 5/108/74 91/109/74 90/107/74 
f 5/108/74 8/110/74 81/87/74 91/109/74 
s 1
f 81/111/75 80/112/76 92/113/76 93/114/75 
f 80/112/76 82/115/77 94/116/77 92/113/76 
f 82/115/77 83/117/78 95/118/78 94/116/77 
f 83/117/78 84/119/79 96/120/79 95/118/78 
f 84/119/79 85/121/80 97/122/80 96/120/79 
f 85/121/80 86/123/81 98/124/81 97/122/80 
f 86/123/81 87/125/82 99/126/82 98/124/81 
f 87/125/82 88/127/83 100/128/83 99/126/82 
f 88/127/83 89/129/84 101/130/84 100/128/83 
f 89/129/84 90/131/85 102/132/85 101/130/84 
f 90/133/85 91/134/86 103/135/86 102/136/85 
f 91/134/86 81/111/75 93/114/75 103/135/86 
s 2
f 93/137/74 92/138/74 104/139/74 105/140/74 
f 92/138/74 94/141/74 106/142/74 104/139/74 
f 94/141/74 95/143/74 107/144/74 106/142/74 
f 95/143/74 96/145/74 108/146/74 107/144/74 
f 96/145/74 97/147/74 109/148/74 108/146/74 
f 97/147/74 98/149/74 110/150/74 109/148/74 
f 98/149/74 99/151/74 111/152/74 110/150/74 
f 99/151/74 100/153/74 112/154/74 111/152/74 
f 100/153/74 101/155/74 113/156/74 112/154/74 
f 101/155/74 102/157/74 114/158/74 113/156/74 
f 102/157/74 103/159/74 115/160/74 114/158/74 
f 103/161/74 93/137/74 105/140/74 115/162/74 
s 1
f 105/163/17 104/164/87 116/165/87 117/166/17 
f 104/164/87 106/167/88 118/168/88 116/165/87 
f 106/167/88 107/169/89 119/170/89 118/168/88 
f 107/169/89 108/171/90 120/172/90 119/170/89 
f 108/171/90 109/173/91 121/174/91 120/172/90 
f 109/173/91 110/175/92 122/176/92 121/174/91 
f 110/177/92 111/178/4 123/179/4 122/180/92 
f 111/178/4 112/181/24 124/182/24 123/179/4 
f 112/181/24 113/183/21 125/184/21 124/182/24 
f 113/183/21 114/185/93 126/186/93 125/184/21 
f 114/185/93 115/187/94 127/188/94 126/186/93 
f 115/187/94 105/163/17 117/166/17 127/188/94 
s 2
f 128/189/95 24/190/95 27/191/95 129/192/95 
f 130/193/96 131/194/97 132/195/96 133/196/96 
s 1
f 128/197/98 129/198/98 131/199/98 130/200/98 
s 4
f 129/201/99 27/202/100 132/203/101 131/204/102 
f 130/205/103 133/206/104 24/207/105 128/208/106 
s 2
f 134/209/107 2/210/107 7/211/107 135/212/107 
f 136/213/108 137/214/108 138/215/108 139/216/108 
s 1
f 134/217/109 135/218/109 137/219/109 136/220/109 
s 4
f 135/221/110 7/222/111 138/223/112 137/224/113 
f 136/225/114 139/226/115 2/227/116 134/228/117 
s 2
f 140/229/118 14/230/118 17/231/118 141/232/118 
f 142/233/119 143/234/119 144/235/119 145/236/119 
s 1
f 140/237/120 141/238/120 143/239/120 142/240/120 
s 4
f 141/241/121 17/242/122 144/243/123 143/244/124 
f 142/245/125 145/246/126 14/247/127 140/248/128 
s 2
f 117/249/74 116/250/74 146/251/74 
f 116/250/74 118/252/74 146/251/74 
f 118/252/74 119/253/74 146/251/74 
f 119/253/74 120/254/74 146/251/74 
f 120/254/74 121/255/74 146/251/74 
f 121/255/74 122/256/74 146/251/74 
f 122/256/74 123/257/74 146/251/74 
f 123/257/74 124/258/74 146/251/74 
f 124/258/74 125/259/74 146/251/74 
f 125/259/74 126/260/74 146/251/74 
f 126/260/74 127/261/74 146/251/74 
f 127/261/74 117/249/74 146/251/74 
s 1
f 56/262/129 55/263/130 32/34/26 31/33/25 
f 59/264/131 56/262/129 31/33/25 35/37/29 
f 61/265/132 59/264/131 35/37/29 37/39/31 
f 63/266/133 61/265/132 37/39/31 39/41/33 
f 65/267/134 63/266/133 39/41/33 41/43/35 
f 67/268/135 65/267/134 41/43/35 43/45/37 
f 69/269/136 67/268/135 43/45/37 45/47/39 
f 71/270/137 69/269/136 45/47/39 47/49/41 
f 73/271/138 71/270/137 47/49/41 49/51/43 
f 75/272/139 73/271/138 49/51/43 51/53/45 
f 77/273/140 75/272/139 51/53/45 53/55/47 
f 55/263/130 77/274/140 53/57/47 32/34/26 
f 34/36/28 33/35/27 147/275/4 148/276/141 
f 36/38/30 34/36/28 148/276/141 149/277/91 
f 38/40/32 36/38/30 149/277/91 150/278/142 
f 40/42/34 38/40/32 150/278/142 151/279/89 
f 42/44/36 40/42/34 151/279/89 152/280/143 
f 44/46/38 42/44/36 152/280/143 153/281/87 
f 46/48/40 44/46/38 153/281/87 154/282/16 
f 48/50/42 46/48/40 154/282/16 155/283/94 
f 50/52/44 48/50/42 155/283/94 156/284/144 
f 52/54/46 50/52/44 156/284/144 157/285/145 
f 54/56/48 52/54/46 157/285/145 158/286/24 
f 33/35/27 54/58/48 158/287/24 147/275/4 
f 148/276/141 147/275/4 159/288/4 139/289/146 
f 149/277/91 148/276/141 138/290/147 160/291/91 
f 150/278/142 149/277/91 160/291/91 161/292/9 
f 151/279/89 150/278/142 161/292/9 162/293/89 
f 152/280/143 151/279/89 162/293/89 145/294/148 
f 153/281/87 152/280/143 144/295/149 163/296/87 
f 154/282/16 153/281/87 163/296/87 164/297/17 
f 155/283/94 154/282/16 164/297/17 165/298/18 
f 156/284/144 155/283/94 165/298/18 133/299/150 
f 157/285/145 156/284/144 132/300/151 166/301/145 
f 158/286/24 157/285/145 166/301/145 167/302/24 
f 147/275/4 158/287/24 167/303/24 159/288/4 
s 2
f 1/84/74 81/87/74 8/110/74 
f 13/103/74 88/102/74 18/101/74 
f 23/94/74 84/93/74 28/92/74 
s 1
f 138/290/147 148/276/141 139/289/146 
f 132/300/151 156/284/144 133/299/150 
f 144/295/149 152/280/143 145/294/148 
f 8/8/7 7/7/6 2/2/2 1/1/1 
f 18/18/15 17/17/14 14/14/12 13/13/11 
f 28/28/23 27/27/22 24/24/20 23/23/19 
f 139/289/146 159/288/4 3/3/3 2/2/2 
f 160/291/91 138/290/147 7/7/6 6/6/5 
f 161/292/9 160/291/91 6/6/5 10/10/9 
f 162/293/89 161/292/9 10/10/9 12/12/10 
f 145/294/148 162/293/89 12/12/10 14/14/12 
f 163/296/87 144/295/149 17/17/14 16/16/13 
f 164/297/17 163/296/87 16/16/13 20/20/17 
f 165/298/18 164/297/17 20/20/17 22/22/18 
f 133/299/150 165/298/18 22/22/18 24/24/20 
f 166/301/145 132/300/151 27/27/22 26/26/21 
f 167/302/24 166/301/145 26/26/21 30/30/24 
f 159/288/4 167/303/24 30/31/24 3/3/3 
# 150 polygons - 30 triangles

