# 3ds Max Wavefront OBJ Exporter v0.97b - (c)2007 guruware
# File Created: 12.02.2018 14:23:13

mtllib turret_rocket.mtl

#
# object turret_rocket_low
#

v  105.7502 0.0000 -1134.2393
v  105.7502 176.6983 -1134.2393
v  122.1098 176.6983 -1073.1843
v  122.1098 0.0000 -1073.1843
v  61.0549 0.0000 -1178.9346
v  61.0549 176.6983 -1178.9346
v  -0.0000 0.0000 -1195.2942
v  -0.0000 176.6983 -1195.2942
v  -61.0549 0.0000 -1178.9346
v  -61.0549 176.6983 -1178.9346
v  -105.7502 0.0000 -1134.2393
v  -105.7502 176.6983 -1134.2393
v  -122.1098 0.0000 -1073.1843
v  -122.1098 176.6983 -1073.1843
v  -105.7502 0.0000 -1012.1295
v  -105.7502 176.6983 -1012.1295
v  -61.0550 0.0000 -967.4341
v  -61.0550 176.6983 -967.4341
v  -0.0001 0.0000 -951.0745
v  -0.0001 176.6983 -951.0745
v  61.0548 0.0000 -967.4341
v  61.0548 176.6983 -967.4341
v  105.7501 0.0000 -1012.1293
v  105.7501 176.6983 -1012.1293
v  58.3385 474.8771 -1106.8661
v  67.3635 474.8771 -1073.1843
v  122.1098 351.8925 -1073.1843
v  105.7502 351.8925 -1134.2393
v  33.6817 474.8771 -1131.5228
v  61.0549 351.8925 -1178.9346
v  -0.0000 474.8771 -1140.5479
v  -0.0000 351.8925 -1195.2942
v  -33.6818 474.8771 -1131.5228
v  -61.0549 351.8925 -1178.9346
v  -58.3385 474.8771 -1106.8661
v  -105.7502 351.8925 -1134.2393
v  -67.3635 474.8771 -1073.1843
v  -122.1098 351.8925 -1073.1843
v  -58.3385 474.8771 -1039.5026
v  -105.7502 351.8925 -1012.1295
v  -33.6818 474.8771 -1014.8458
v  -61.0550 351.8925 -967.4341
v  -0.0001 474.8771 -1005.8208
v  -0.0001 351.8925 -951.0745
v  33.6817 474.8771 -1014.8458
v  61.0548 351.8925 -967.4341
v  58.3385 474.8771 -1039.5026
v  105.7501 351.8925 -1012.1293
v  17.5563 527.5477 -1083.3204
v  20.2723 527.5477 -1073.1843
v  10.1361 527.5477 -1090.7406
v  -0.0000 527.5477 -1093.4567
v  -10.1362 527.5477 -1090.7406
v  -17.5564 527.5477 -1083.3204
v  -20.2723 527.5477 -1073.1843
v  -17.5564 527.5477 -1063.0482
v  -10.1362 527.5477 -1055.6281
v  -0.0000 527.5477 -1052.9120
v  10.1361 527.5477 -1055.6281
v  17.5563 527.5477 -1063.0482
v  -0.0000 538.0869 -1073.1843
v  107.9353 0.0000 -1073.1843
v  93.4747 0.0000 -1127.1520
v  93.4747 0.0000 -1019.2166
v  53.9676 0.0000 -979.7095
v  -0.0001 0.0000 -965.2490
v  -53.9677 0.0000 -979.7096
v  -93.4748 0.0000 -1019.2167
v  -107.9354 0.0000 -1073.1843
v  -93.4748 0.0000 -1127.1520
v  -53.9677 0.0000 -1166.6591
v  -0.0000 0.0000 -1181.1196
v  53.9677 0.0000 -1166.6591
v  93.7609 25.7711 -1073.1843
v  81.1993 25.7711 -1120.0648
v  81.1993 25.7711 -1026.3038
v  46.8804 25.7711 -991.9850
v  -0.0001 25.7711 -979.4234
v  -46.8805 25.7711 -991.9850
v  -81.1994 25.7711 -1026.3038
v  -93.7609 25.7711 -1073.1843
v  -81.1993 25.7711 -1120.0648
v  -46.8805 25.7711 -1154.3837
v  -0.0000 25.7711 -1166.9452
v  46.8804 25.7711 -1154.3837
v  47.6403 25.7711 -1073.1843
v  41.2577 25.7711 -1097.0045
v  41.2577 25.7711 -1049.3641
v  23.8201 25.7711 -1031.9266
v  -0.0000 25.7711 -1025.5441
v  -23.8202 25.7711 -1031.9266
v  -41.2577 25.7711 -1049.3643
v  -47.6403 25.7711 -1073.1843
v  -41.2577 25.7711 -1097.0045
v  -23.8202 25.7711 -1114.4420
v  -0.0000 25.7711 -1120.8246
v  23.8201 25.7711 -1114.4420
v  47.6403 70.8445 -1073.1843
v  41.2577 70.8445 -1097.0045
v  41.2577 70.8445 -1049.3641
v  23.8201 70.8445 -1031.9266
v  -0.0000 70.8445 -1025.5441
v  -23.8202 70.8445 -1031.9266
v  -41.2577 70.8445 -1049.3643
v  -47.6403 70.8445 -1073.1843
v  -41.2577 70.8445 -1097.0045
v  -23.8202 70.8445 -1114.4420
v  -0.0000 70.8445 -1120.8246
v  23.8201 70.8445 -1114.4420
v  -6.0975 4.2058 -911.2280
v  -6.0975 4.2058 -953.9813
v  6.0975 4.2058 -953.9813
v  6.0975 4.2058 -911.2280
v  -6.0975 147.6279 -940.2459
v  6.0975 147.6279 -940.2459
v  6.0975 147.6279 -953.9813
v  -6.0975 147.6279 -953.9813
v  143.3070 4.2058 -1148.8818
v  106.2816 4.2058 -1127.5052
v  100.1841 4.2058 -1138.0664
v  137.2095 4.2058 -1159.4431
v  118.1768 147.6279 -1134.3729
v  112.0793 147.6279 -1144.9341
v  100.1841 147.6279 -1138.0664
v  106.2816 147.6279 -1127.5052
v  -137.2095 4.2058 -1159.4431
v  -100.1841 4.2058 -1138.0664
v  -106.2816 4.2058 -1127.5052
v  -143.3070 4.2058 -1148.8818
v  -112.0793 147.6279 -1144.9341
v  -118.1768 147.6279 -1134.3729
v  -106.2816 147.6279 -1127.5052
v  -100.1841 147.6279 -1138.0664
v  -0.0000 70.8445 -1073.1843
# 134 vertices

vn 0.8660 0.0000 -0.5000
vn 0.8660 -0.0000 -0.5000
vn 1.0000 0.0000 0.0000
vn 0.5000 -0.0000 -0.8660
vn -0.0000 -0.0000 -1.0000
vn -0.0000 0.0000 -1.0000
vn -0.5000 0.0000 -0.8660
vn -0.8660 0.0000 -0.5000
vn -1.0000 0.0000 -0.0000
vn -0.8660 0.0000 0.5000
vn -0.5000 0.0000 0.8660
vn -0.0000 0.0000 1.0000
vn 0.5000 0.0000 0.8660
vn 0.8660 0.0000 0.5000
vn 0.7334 0.5318 -0.4234
vn 0.8469 0.5318 0.0000
vn 0.9795 0.2012 0.0000
vn 0.8483 0.2012 -0.4898
vn 0.4234 0.5318 -0.7334
vn 0.4898 0.2012 -0.8483
vn -0.0000 0.5318 -0.8469
vn -0.0000 0.2012 -0.9795
vn -0.4234 0.5318 -0.7334
vn -0.4898 0.2012 -0.8483
vn -0.7334 0.5318 -0.4234
vn -0.8483 0.2012 -0.4898
vn -0.8469 0.5318 -0.0000
vn -0.9795 0.2012 -0.0000
vn -0.7334 0.5318 0.4234
vn -0.8483 0.2012 0.4898
vn -0.4234 0.5318 0.7334
vn -0.4898 0.2012 0.8483
vn -0.0000 0.5318 0.8469
vn -0.0000 0.2012 0.9795
vn 0.4234 0.5318 0.7334
vn 0.4898 0.2012 0.8483
vn 0.7334 0.5318 0.4234
vn 0.8483 0.2012 0.4898
vn 0.5468 0.7755 -0.3157
vn 0.6314 0.7755 0.0000
vn 0.3157 0.7755 -0.5468
vn -0.0000 0.7755 -0.6314
vn -0.3157 0.7755 -0.5468
vn -0.5468 0.7755 -0.3157
vn -0.6314 0.7755 -0.0000
vn -0.5468 0.7755 0.3157
vn -0.3157 0.7755 0.5468
vn -0.0000 0.7755 0.6314
vn 0.3157 0.7755 0.5468
vn 0.5468 0.7755 0.3157
vn -0.0000 1.0000 0.0000
vn 0.0000 -1.0000 -0.0000
vn -0.7588 -0.4819 0.4381
vn -0.8762 -0.4819 -0.0000
vn -0.7588 -0.4819 -0.4381
vn -0.4381 -0.4819 -0.7588
vn 0.0000 -0.4819 -0.8762
vn 0.4381 -0.4819 -0.7588
vn 0.7588 -0.4819 -0.4381
vn 0.8762 -0.4819 0.0000
vn 0.7588 -0.4819 0.4381
vn 0.4381 -0.4819 0.7588
vn 0.0000 -0.4819 0.8762
vn -0.4381 -0.4819 0.7588
vn 0.0000 0.0000 -1.0000
vn 0.5000 0.0000 -0.8660
vn 0.0000 0.0000 1.0000
vn 0.0000 1.0000 -0.0000
vn 0.0000 0.1983 0.9801
vn 1.0000 0.0000 -0.0000
vn 0.8488 0.1983 -0.4901
vn -0.8488 0.1983 -0.4901
vn -0.5000 -0.0000 0.8660
# 73 vertex normals

vt 0.4992 0.2512 0.0000
vt 0.4747 0.3042 0.0000
vt 0.4577 0.2953 0.0000
vt 0.4787 0.2430 0.0000
vt 0.2728 0.2430 0.0000
vt 0.2938 0.2953 0.0000
vt 0.2768 0.3041 0.0000
vt 0.2523 0.2512 0.0000
vt 0.2932 0.2361 0.0000
vt 0.3105 0.2879 0.0000
vt 0.3138 0.2305 0.0000
vt 0.3269 0.2821 0.0000
vt 0.3344 0.2265 0.0000
vt 0.3433 0.2780 0.0000
vt 0.3550 0.2240 0.0000
vt 0.3595 0.2755 0.0000
vt 0.3757 0.2232 0.0000
vt 0.3757 0.2746 0.0000
vt 0.3964 0.2240 0.0000
vt 0.3919 0.2755 0.0000
vt 0.4171 0.2265 0.0000
vt 0.4082 0.2780 0.0000
vt 0.4377 0.2305 0.0000
vt 0.4245 0.2821 0.0000
vt 0.4582 0.2360 0.0000
vt 0.4410 0.2879 0.0000
vt 0.4128 0.3682 0.0000
vt 0.4084 0.3585 0.0000
vt 0.4341 0.3358 0.0000
vt 0.4466 0.3474 0.0000
vt 0.3435 0.3591 0.0000
vt 0.3394 0.3685 0.0000
vt 0.3049 0.3473 0.0000
vt 0.3173 0.3358 0.0000
vt 0.3489 0.3516 0.0000
vt 0.3293 0.3270 0.0000
vt 0.3550 0.3461 0.0000
vt 0.3410 0.3206 0.0000
vt 0.3616 0.3422 0.0000
vt 0.3526 0.3162 0.0000
vt 0.3685 0.3398 0.0000
vt 0.3641 0.3136 0.0000
vt 0.3756 0.3390 0.0000
vt 0.3757 0.3128 0.0000
vt 0.3827 0.3397 0.0000
vt 0.3873 0.3136 0.0000
vt 0.3897 0.3418 0.0000
vt 0.3988 0.3162 0.0000
vt 0.3965 0.3456 0.0000
vt 0.4104 0.3207 0.0000
vt 0.4028 0.3511 0.0000
vt 0.4222 0.3271 0.0000
vt 0.3878 0.3708 0.0000
vt 0.3880 0.3662 0.0000
vt 0.3644 0.3670 0.0000
vt 0.3651 0.3712 0.0000
vt 0.3651 0.3632 0.0000
vt 0.3669 0.3599 0.0000
vt 0.3693 0.3575 0.0000
vt 0.3723 0.3559 0.0000
vt 0.3755 0.3553 0.0000
vt 0.3788 0.3556 0.0000
vt 0.3819 0.3568 0.0000
vt 0.3847 0.3591 0.0000
vt 0.3868 0.3622 0.0000
vt 0.3759 0.3648 0.0000
vt 0.5573 0.5407 0.0000
vt 0.5617 0.5570 0.0000
vt 0.5579 0.5570 0.0000
vt 0.5540 0.5426 0.0000
vt 0.5573 0.5733 0.0000
vt 0.5540 0.5714 0.0000
vt 0.5454 0.5852 0.0000
vt 0.5435 0.5819 0.0000
vt 0.5291 0.5895 0.0000
vt 0.5291 0.5857 0.0000
vt 0.5129 0.5852 0.0000
vt 0.5148 0.5819 0.0000
vt 0.5010 0.5733 0.0000
vt 0.5042 0.5714 0.0000
vt 0.4966 0.5570 0.0000
vt 0.5004 0.5570 0.0000
vt 0.5010 0.5408 0.0000
vt 0.5042 0.5426 0.0000
vt 0.5129 0.5289 0.0000
vt 0.5148 0.5321 0.0000
vt 0.5291 0.5245 0.0000
vt 0.5291 0.5283 0.0000
vt 0.5454 0.5288 0.0000
vt 0.5435 0.5321 0.0000
vt 0.6641 0.3968 0.0000
vt 0.6776 0.3904 0.0000
vt 0.6800 0.3979 0.0000
vt 0.6684 0.4034 0.0000
vt 0.6922 0.3875 0.0000
vt 0.6927 0.3953 0.0000
vt 0.6922 0.5066 0.0000
vt 0.6776 0.5037 0.0000
vt 0.6800 0.4962 0.0000
vt 0.6927 0.4987 0.0000
vt 0.6641 0.4973 0.0000
vt 0.6684 0.4907 0.0000
vt 0.6527 0.4877 0.0000
vt 0.6585 0.4824 0.0000
vt 0.6440 0.4757 0.0000
vt 0.6509 0.4719 0.0000
vt 0.6386 0.4618 0.0000
vt 0.6462 0.4599 0.0000
vt 0.6367 0.4471 0.0000
vt 0.6446 0.4471 0.0000
vt 0.6386 0.4323 0.0000
vt 0.6462 0.4342 0.0000
vt 0.6440 0.4185 0.0000
vt 0.6509 0.4222 0.0000
vt 0.6527 0.4064 0.0000
vt 0.6585 0.4117 0.0000
vt 0.9889 0.2357 0.0000
vt 0.9922 0.2482 0.0000
vt 0.9799 0.2482 0.0000
vt 0.9782 0.2418 0.0000
vt 0.9889 0.2607 0.0000
vt 0.9782 0.2545 0.0000
vt 0.9797 0.2698 0.0000
vt 0.9736 0.2592 0.0000
vt 0.9673 0.2732 0.0000
vt 0.9673 0.2609 0.0000
vt 0.9548 0.2698 0.0000
vt 0.9609 0.2592 0.0000
vt 0.9456 0.2607 0.0000
vt 0.9563 0.2545 0.0000
vt 0.9423 0.2482 0.0000
vt 0.9546 0.2482 0.0000
vt 0.9456 0.2357 0.0000
vt 0.9563 0.2418 0.0000
vt 0.9548 0.2266 0.0000
vt 0.9609 0.2372 0.0000
vt 0.9673 0.2232 0.0000
vt 0.9673 0.2355 0.0000
vt 0.9797 0.2266 0.0000
vt 0.9736 0.2372 0.0000
vt 0.0283 0.9891 0.0000
vt 0.0217 0.9891 0.0000
vt 0.0217 0.9771 0.0000
vt 0.0283 0.9771 0.0000
vt 0.0151 0.9891 0.0000
vt 0.0151 0.9771 0.0000
vt 0.0086 0.9891 0.0000
vt 0.0086 0.9771 0.0000
vt 0.0020 0.9891 0.0000
vt 0.0020 0.9771 0.0000
vt 0.0808 0.9891 0.0000
vt 0.0742 0.9891 0.0000
vt 0.0742 0.9771 0.0000
vt 0.0808 0.9771 0.0000
vt 0.0677 0.9891 0.0000
vt 0.0677 0.9771 0.0000
vt 0.0611 0.9891 0.0000
vt 0.0611 0.9771 0.0000
vt 0.0545 0.9891 0.0000
vt 0.0545 0.9771 0.0000
vt 0.0480 0.9891 0.0000
vt 0.0480 0.9771 0.0000
vt 0.0414 0.9891 0.0000
vt 0.0414 0.9771 0.0000
vt 0.0348 0.9891 0.0000
vt 0.0348 0.9771 0.0000
vt 0.5557 0.8364 0.0000
vt 0.5557 0.8250 0.0000
vt 0.5589 0.8250 0.0000
vt 0.5589 0.8364 0.0000
vt 0.5526 0.8901 0.0000
vt 0.5559 0.8901 0.0000
vt 0.5559 0.8938 0.0000
vt 0.5526 0.8938 0.0000
vt 0.3585 0.8728 0.0000
vt 0.3617 0.8728 0.0000
vt 0.3617 0.9118 0.0000
vt 0.3585 0.9118 0.0000
vt 0.4637 0.9134 0.0000
vt 0.4751 0.9134 0.0000
vt 0.4751 0.9516 0.0000
vt 0.4715 0.9516 0.0000
vt 0.4637 0.8548 0.0000
vt 0.4751 0.8548 0.0000
vt 0.4674 0.8930 0.0000
vt 0.4637 0.8930 0.0000
vt 0.9497 0.0745 0.0000
vt 0.9399 0.0802 0.0000
vt 0.9382 0.0774 0.0000
vt 0.9481 0.0717 0.0000
vt 0.7569 0.3648 0.0000
vt 0.7552 0.3676 0.0000
vt 0.7521 0.3658 0.0000
vt 0.7537 0.3630 0.0000
vt 0.6328 0.7981 0.0000
vt 0.6361 0.7984 0.0000
vt 0.6318 0.8371 0.0000
vt 0.6285 0.8368 0.0000
vt 0.2245 0.8836 0.0000
vt 0.2359 0.8839 0.0000
vt 0.2349 0.9221 0.0000
vt 0.2313 0.9220 0.0000
vt 0.3361 0.9371 0.0000
vt 0.3475 0.9372 0.0000
vt 0.3393 0.9753 0.0000
vt 0.3356 0.9753 0.0000
vt 0.2092 0.8568 0.0000
vt 0.2191 0.8625 0.0000
vt 0.2175 0.8653 0.0000
vt 0.2076 0.8597 0.0000
vt 0.4905 0.5065 0.0000
vt 0.4888 0.5037 0.0000
vt 0.4920 0.5019 0.0000
vt 0.4936 0.5047 0.0000
vt 0.9874 0.1411 0.0000
vt 0.9906 0.1407 0.0000
vt 0.9949 0.1794 0.0000
vt 0.9917 0.1798 0.0000
vt 0.4637 0.6396 0.0000
vt 0.4751 0.6395 0.0000
vt 0.4756 0.6777 0.0000
vt 0.4719 0.6777 0.0000
vt 0.4622 0.7803 0.0000
vt 0.4736 0.7800 0.0000
vt 0.4668 0.8184 0.0000
vt 0.4632 0.8185 0.0000
vt 0.2313 0.7491 0.0000
vt 0.2330 0.7555 0.0000
vt 0.2203 0.7555 0.0000
vt 0.2313 0.7618 0.0000
vt 0.2266 0.7665 0.0000
vt 0.2203 0.7682 0.0000
vt 0.2139 0.7665 0.0000
vt 0.2093 0.7618 0.0000
vt 0.2076 0.7555 0.0000
vt 0.2093 0.7491 0.0000
vt 0.2139 0.7445 0.0000
vt 0.2203 0.7428 0.0000
vt 0.2266 0.7445 0.0000
# 239 texture coords

g turret_rocket_low
usemtl wire_213154229
s 1
f 1/1/1 2/2/2 3/3/3 4/4/3 
f 5/5/4 6/6/4 2/7/2 1/8/1 
f 7/9/5 8/10/6 6/6/4 5/5/4 
f 9/11/7 10/12/7 8/10/6 7/9/5 
f 11/13/8 12/14/8 10/12/7 9/11/7 
f 13/15/9 14/16/9 12/14/8 11/13/8 
f 15/17/10 16/18/10 14/16/9 13/15/9 
f 17/19/11 18/20/11 16/18/10 15/17/10 
f 19/21/12 20/22/12 18/20/11 17/19/11 
f 21/23/13 22/24/13 20/22/12 19/21/12 
f 23/25/14 24/26/14 22/24/13 21/23/13 
f 4/4/3 3/3/3 24/26/14 23/25/14 
f 25/27/15 26/28/16 27/29/17 28/30/18 
f 29/31/19 25/32/15 28/33/18 30/34/20 
f 31/35/21 29/31/19 30/34/20 32/36/22 
f 33/37/23 31/35/21 32/36/22 34/38/24 
f 35/39/25 33/37/23 34/38/24 36/40/26 
f 37/41/27 35/39/25 36/40/26 38/42/28 
f 39/43/29 37/41/27 38/42/28 40/44/30 
f 41/45/31 39/43/29 40/44/30 42/46/32 
f 43/47/33 41/45/31 42/46/32 44/48/34 
f 45/49/35 43/47/33 44/48/34 46/50/36 
f 47/51/37 45/49/35 46/50/36 48/52/38 
f 26/28/16 47/51/37 48/52/38 27/29/17 
f 26/28/16 25/27/15 49/53/39 50/54/40 
f 25/32/15 29/31/19 51/55/41 49/56/39 
f 29/31/19 31/35/21 52/57/42 51/55/41 
f 31/35/21 33/37/23 53/58/43 52/57/42 
f 33/37/23 35/39/25 54/59/44 53/58/43 
f 35/39/25 37/41/27 55/60/45 54/59/44 
f 37/41/27 39/43/29 56/61/46 55/60/45 
f 39/43/29 41/45/31 57/62/47 56/61/46 
f 41/45/31 43/47/33 58/63/48 57/62/47 
f 43/47/33 45/49/35 59/64/49 58/63/48 
f 45/49/35 47/51/37 60/65/50 59/64/49 
f 47/51/37 26/28/16 50/54/40 60/65/50 
f 50/54/40 49/53/39 61/66/51 
f 49/56/39 51/55/41 61/66/51 
f 51/55/41 52/57/42 61/66/51 
f 52/57/42 53/58/43 61/66/51 
f 53/58/43 54/59/44 61/66/51 
f 54/59/44 55/60/45 61/66/51 
f 55/60/45 56/61/46 61/66/51 
f 56/61/46 57/62/47 61/66/51 
f 57/62/47 58/63/48 61/66/51 
f 58/63/48 59/64/49 61/66/51 
f 59/64/49 60/65/50 61/66/51 
f 60/65/50 50/54/40 61/66/51 
s 2
f 1/67/52 4/68/52 62/69/52 63/70/52 
f 4/68/52 23/71/52 64/72/52 62/69/52 
f 23/71/52 21/73/52 65/74/52 64/72/52 
f 21/73/52 19/75/52 66/76/52 65/74/52 
f 19/75/52 17/77/52 67/78/52 66/76/52 
f 17/77/52 15/79/52 68/80/52 67/78/52 
f 15/79/52 13/81/52 69/82/52 68/80/52 
f 13/81/52 11/83/52 70/84/52 69/82/52 
f 11/83/52 9/85/52 71/86/52 70/84/52 
f 9/85/52 7/87/52 72/88/52 71/86/52 
f 7/87/52 5/89/52 73/90/52 72/88/52 
f 5/89/52 1/67/52 63/70/52 73/90/52 
s 1
f 63/91/53 62/92/54 74/93/54 75/94/53 
f 62/92/54 64/95/55 76/96/55 74/93/54 
f 64/97/55 65/98/56 77/99/56 76/100/55 
f 65/98/56 66/101/57 78/102/57 77/99/56 
f 66/101/57 67/103/58 79/104/58 78/102/57 
f 67/103/58 68/105/59 80/106/59 79/104/58 
f 68/105/59 69/107/60 81/108/60 80/106/59 
f 69/107/60 70/109/61 82/110/61 81/108/60 
f 70/109/61 71/111/62 83/112/62 82/110/61 
f 71/111/62 72/113/63 84/114/63 83/112/62 
f 72/113/63 73/115/64 85/116/64 84/114/63 
f 73/115/64 63/91/53 75/94/53 85/116/64 
s 2
f 75/117/52 74/118/52 86/119/52 87/120/52 
f 74/118/52 76/121/52 88/122/52 86/119/52 
f 76/121/52 77/123/52 89/124/52 88/122/52 
f 77/123/52 78/125/52 90/126/52 89/124/52 
f 78/125/52 79/127/52 91/128/52 90/126/52 
f 79/127/52 80/129/52 92/130/52 91/128/52 
f 80/129/52 81/131/52 93/132/52 92/130/52 
f 81/131/52 82/133/52 94/134/52 93/132/52 
f 82/133/52 83/135/52 95/136/52 94/134/52 
f 83/135/52 84/137/52 96/138/52 95/136/52 
f 84/137/52 85/139/52 97/140/52 96/138/52 
f 85/139/52 75/117/52 87/120/52 97/140/52 
s 1
f 87/141/10 86/142/9 98/143/9 99/144/10 
f 86/142/9 88/145/8 100/146/8 98/143/9 
f 88/145/8 89/147/7 101/148/7 100/146/8 
f 89/147/7 90/149/65 102/150/65 101/148/7 
f 90/151/65 91/152/66 103/153/66 102/154/65 
f 91/152/66 92/155/1 104/156/1 103/153/66 
f 92/155/1 93/157/3 105/158/3 104/156/1 
f 93/157/3 94/159/14 106/160/14 105/158/3 
f 94/159/14 95/161/13 107/162/13 106/160/14 
f 95/161/13 96/163/67 108/164/67 107/162/13 
f 96/163/67 97/165/11 109/166/11 108/164/67 
f 97/165/11 87/141/10 99/144/10 109/166/11 
f 110/167/52 111/168/52 112/169/52 113/170/52 
f 114/171/68 115/172/68 116/173/68 117/174/68 
s 2
f 110/175/69 113/176/69 115/177/69 114/178/69 
s 4
f 113/179/70 112/180/70 116/181/70 115/182/70 
f 111/183/9 110/184/9 114/185/9 117/186/9 
s 1
f 118/187/52 119/188/52 120/189/52 121/190/52 
f 122/191/68 123/192/68 124/193/68 125/194/68 
s 2
f 118/195/71 121/196/71 123/197/71 122/198/71 
s 4
f 121/199/7 120/200/7 124/201/7 123/202/7 
f 119/203/13 118/204/13 122/205/13 125/206/13 
s 1
f 126/207/52 127/208/52 128/209/52 129/210/52 
f 130/211/68 131/212/68 132/213/68 133/214/68 
s 2
f 126/215/72 129/216/72 131/217/72 130/218/72 
s 4
f 129/219/73 128/220/11 132/221/73 131/222/73 
f 127/223/66 126/224/66 130/225/66 133/226/66 
s 2
f 99/227/52 98/228/52 134/229/52 
f 98/228/52 100/230/52 134/229/52 
f 100/230/52 101/231/52 134/229/52 
f 101/231/52 102/232/52 134/229/52 
f 102/232/52 103/233/52 134/229/52 
f 103/233/52 104/234/52 134/229/52 
f 104/234/52 105/235/52 134/229/52 
f 105/235/52 106/236/52 134/229/52 
f 106/236/52 107/237/52 134/229/52 
f 107/237/52 108/238/52 134/229/52 
f 108/238/52 109/239/52 134/229/52 
f 109/239/52 99/227/52 134/229/52 
s 1
f 28/30/18 27/29/17 3/3/3 2/2/2 
f 30/34/20 28/33/18 2/7/2 6/6/4 
f 32/36/22 30/34/20 6/6/4 8/10/6 
f 34/38/24 32/36/22 8/10/6 10/12/7 
f 36/40/26 34/38/24 10/12/7 12/14/8 
f 38/42/28 36/40/26 12/14/8 14/16/9 
f 40/44/30 38/42/28 14/16/9 16/18/10 
f 42/46/32 40/44/30 16/18/10 18/20/11 
f 44/48/34 42/46/32 18/20/11 20/22/12 
f 46/50/36 44/48/34 20/22/12 22/24/13 
f 48/52/38 46/50/36 22/24/13 24/26/14 
f 27/29/17 48/52/38 24/26/14 3/3/3 
# 111 polygons - 24 triangles

