{"accessors":[{"bufferView":0,"componentType":5125,"count":1368,"type":"SCALAR"},{"bufferView":1,"componentType":5126,"count":652,"max":[1,0.18427696824073792,0.94013231992721558],"min":[-1,-0.72558772563934326,-0.91329973936080933],"type":"VEC3"},{"bufferView":2,"componentType":5126,"count":652,"type":"VEC3"},{"bufferView":3,"componentType":5126,"count":652,"type":"VEC2"},{"bufferView":4,"componentType":5125,"count":738,"type":"SCALAR"},{"bufferView":5,"componentType":5126,"count":239,"max":[0.27047243714332581,0.20049299299716949,0.50319433212280273],"min":[-0.22280800342559814,-0.72558772563934326,0],"type":"VEC3"},{"bufferView":6,"componentType":5126,"count":239,"type":"VEC3"},{"bufferView":7,"componentType":5126,"count":239,"type":"VEC2"},{"bufferView":8,"componentType":5125,"count":2211,"type":"SCALAR"},{"bufferView":9,"componentType":5126,"count":691,"max":[0.3851361870765686,0.73341953754425049,0.95902323722839355],"min":[-0.33747175335884094,-0.73341959714889526,-0.95902335643768311],"type":"VEC3"},{"bufferView":10,"componentType":5126,"count":691,"type":"VEC3"},{"bufferView":11,"componentType":5126,"count":691,"type":"VEC2"}],"asset":{"generator":"Substance Painter 2017.4.0","version":"2.0"},"bufferViews":[{"buffer":0,"byteLength":5472,"byteOffset":0,"target":34963},{"buffer":0,"byteLength":7824,"byteOffset":5472,"target":34962},{"buffer":0,"byteLength":7824,"byteOffset":13296,"target":34962},{"buffer":0,"byteLength":5216,"byteOffset":21120,"target":34962},{"buffer":0,"byteLength":2952,"byteOffset":26336,"target":34963},{"buffer":0,"byteLength":2868,"byteOffset":29288,"target":34962},{"buffer":0,"byteLength":2868,"byteOffset":32156,"target":34962},{"buffer":0,"byteLength":1912,"byteOffset":35024,"target":34962},{"buffer":0,"byteLength":8844,"byteOffset":36936,"target":34963},{"buffer":0,"byteLength":8292,"byteOffset":45780,"target":34962},{"buffer":0,"byteLength":8292,"byteOffset":54072,"target":34962},{"buffer":0,"byteLength":5528,"byteOffset":62364,"target":34962}],"buffers":[{"byteLength":67892,"uri":"turret.bin"}],"images":[{"uri":"DefaultMaterial_baseColor.png"},{"uri":"DefaultMaterial_occlusionRoughnessMetallic.png"},{"uri":"DefaultMaterial_normal.png"}],"materials":[{"alphaMode":"OPAQUE","name":"DefaultMaterial","normalTexture":{"index":2},"occlusionTexture":{"index":1},"pbrMetallicRoughness":{"baseColorTexture":{"index":0},"metallicRoughnessTexture":{"index":1}}}],"meshes":[{"name":"turret_legs_low","primitives":[{"attributes":{"NORMAL":2,"POSITION":1,"TEXCOORD_0":3},"indices":0,"material":0,"mode":4}]},{"name":"turret_rocket_low","primitives":[{"attributes":{"NORMAL":6,"POSITION":5,"TEXCOORD_0":7},"indices":4,"material":0,"mode":4}]},{"name":"turret_head_low","primitives":[{"attributes":{"NORMAL":10,"POSITION":9,"TEXCOORD_0":11},"indices":8,"material":0,"mode":4}]}],"nodes":[{"children":[1,3,5],"name":"root","scale":[58.103672027587891,58.103672027587891,58.103672027587891],"translation":[-1.3847389221191406,42.159313201904297,-13.04180908203125]},{"children":[2],"name":"turret_legs_low"},{"mesh":0,"name":"turret_legs_low"},{"children":[4],"name":"turret_rocket_low"},{"mesh":1,"name":"turret_rocket_low"},{"children":[6],"name":"turret_head_low"},{"mesh":2,"name":"turret_head_low"}],"samplers":[{"magFilter":9729,"minFilter":9985,"wrapS":10497,"wrapT":10497}],"scene":0,"scenes":[{"name":"Scene","nodes":[0]}],"textures":[{"sampler":0,"source":0},{"sampler":0,"source":1},{"sampler":0,"source":2}]}
