{"accessors":[{"bufferView":0,"componentType":5125,"count":312,"type":"SCALAR"},{"bufferView":1,"componentType":5126,"count":144,"max":[1,1,1],"min":[-1,-1,-1],"type":"VEC3"},{"bufferView":2,"componentType":5126,"count":144,"type":"VEC3"},{"bufferView":3,"componentType":5126,"count":144,"type":"VEC2"}],"asset":{"generator":"Substance Painter 2017.4.0","version":"2.0"},"bufferViews":[{"buffer":0,"byteLength":1248,"byteOffset":0,"target":34963},{"buffer":0,"byteLength":1728,"byteOffset":1248,"target":34962},{"buffer":0,"byteLength":1728,"byteOffset":2976,"target":34962},{"buffer":0,"byteLength":1152,"byteOffset":4704,"target":34962}],"buffers":[{"byteLength":5856,"uri":"box.bin"}],"images":[{"uri":"DefaultMaterial_baseColor.png"},{"uri":"DefaultMaterial_occlusionRoughnessMetallic.png"},{"uri":"DefaultMaterial_normal.png"}],"materials":[{"alphaMode":"OPAQUE","name":"DefaultMaterial","normalTexture":{"index":2},"occlusionTexture":{"index":1},"pbrMetallicRoughness":{"baseColorTexture":{"index":0},"metallicRoughnessTexture":{"index":1}}}],"meshes":[{"name":"box_low","primitives":[{"attributes":{"NORMAL":2,"POSITION":1,"TEXCOORD_0":3},"indices":0,"material":0,"mode":4}]}],"nodes":[{"children":[1],"name":"root","scale":[30,30,30],"translation":[-8.0963249206542969,30,-225.47177124023438]},{"children":[2],"name":"box_low"},{"mesh":0,"name":"box_low"}],"samplers":[{"magFilter":9729,"minFilter":9985,"wrapS":10497,"wrapT":10497}],"scene":0,"scenes":[{"name":"Scene","nodes":[0]}],"textures":[{"sampler":0,"source":0},{"sampler":0,"source":1},{"sampler":0,"source":2}]}
